<!DOCTYPE svg PUBLIC "-//W3C//DTD SVG 1.1//EN" "http://www.w3.org/Graphics/SVG/1.1/DTD/svg11.dtd">
<!-- Uploaded to: SVG Repo, www.svgrepo.com, Transformed by: SVG Repo Mixer Tools -->
<svg width="800px" height="800px" viewBox="0 0 48 48" id="Layer_2" data-name="Layer 2" xmlns="http://www.w3.org/2000/svg" fill="#666666" stroke="#666666">
<g id="SVGRepo_bgCarrier" stroke-width="0"/>
<g id="SVGRepo_tracerCarrier" stroke-linecap="round" stroke-linejoin="round" stroke="#CCCCCC" stroke-width="1.7280000000000002">
<defs>
<style>.cls-1{fill:none;stroke:#666666;stroke-linecap:round;stroke-linejoin:round;}</style>
</defs>
<path class="cls-1" d="M24,4.5A14.82,14.82,0,0,0,9.18,19.32h0c0,.34,0,.68,0,1v.08C9.78,28.52,16.52,35.05,24,43.5,31.81,34.68,38.82,28,38.82,19.32h0A14.82,14.82,0,0,0,24,4.5Zm0,7.7a7.13,7.13,0,1,1-7.13,7.12A7.13,7.13,0,0,1,24,12.2Z"/>
</g>
<g id="SVGRepo_iconCarrier">
<defs>
<style>.cls-1{fill:none;stroke:#666666;stroke-linecap:round;stroke-linejoin:round;}</style>
</defs>
<path class="cls-1" d="M24,4.5A14.82,14.82,0,0,0,9.18,19.32h0c0,.34,0,.68,0,1v.08C9.78,28.52,16.52,35.05,24,43.5,31.81,34.68,38.82,28,38.82,19.32h0A14.82,14.82,0,0,0,24,4.5Zm0,7.7a7.13,7.13,0,1,1-7.13,7.12A7.13,7.13,0,0,1,24,12.2Z"/>
</g>
</svg>