<svg xmlns="http://www.w3.org/2000/svg" width="1619" height="1004" viewBox="0 0 1619 1004" version="1.1"><path d="M 942.347 459.750 L 943.260 466.500 934.127 486 C 929.104 496.725, 924.045 506.288, 922.886 507.250 C 921.130 508.708, 918.722 509, 908.448 509 C 901.667 509, 895.853 508.571, 895.528 508.046 C 895.204 507.521, 896.302 504.084, 897.969 500.407 C 899.636 496.731, 901 493.561, 901 493.362 C 901 493.163, 896.115 493, 890.144 493 L 879.288 493 874.771 502.750 C 872.287 508.113, 869.946 513.916, 869.570 515.646 C 868.737 519.479, 870.978 525.383, 873.850 526.920 C 875.137 527.609, 884.694 528, 900.238 528 C 924.154 528, 924.700 527.954, 929.568 525.528 C 939.258 520.699, 941.709 517.057, 956.432 485.604 C 963.871 469.711, 970.223 455.873, 970.546 454.854 C 971.101 453.106, 970.289 453, 956.284 453 L 941.434 453 942.347 459.750 M 993.044 454.750 C 993.068 455.712, 993.472 458.492, 993.942 460.928 L 994.796 465.355 968.733 494.428 C 954.398 510.417, 941.765 524.513, 940.660 525.750 L 938.651 528 949.576 527.931 L 960.500 527.862 967.386 519.931 L 974.272 512 990.136 512 L 1006 512 1006 520 L 1006 528 1016.348 528 L 1026.697 528 1027.332 513.750 C 1027.681 505.913, 1028.269 489.038, 1028.638 476.250 L 1029.308 453 1011.154 453 C 994.515 453, 993.004 453.146, 993.044 454.750 M 1068.432 455.472 C 1059.029 460.158, 1056.086 464.341, 1044.039 490.144 C 1031.506 516.988, 1030.814 519.968, 1035.923 525.077 L 1038.846 528 1065.673 527.990 C 1091.824 527.981, 1092.626 527.921, 1097.500 525.608 C 1105.747 521.694, 1110.097 516.169, 1117.944 499.641 C 1121.825 491.468, 1125 484.606, 1125 484.391 C 1125 484.176, 1118.272 484, 1110.050 484 L 1095.100 484 1088.050 492.440 C 1084.172 497.083, 1081 501.133, 1081 501.440 C 1081 501.748, 1084.368 502, 1088.484 502 L 1095.968 502 1094.299 505.500 L 1092.630 509 1076.065 508.985 C 1066.954 508.976, 1058.870 508.571, 1058.100 508.083 C 1056.972 507.369, 1058.091 504.224, 1063.877 491.848 C 1067.825 483.407, 1071.379 476.005, 1071.777 475.400 C 1073.737 472.417, 1077.323 472, 1101.040 472 L 1125.212 472 1127.356 469.279 C 1128.535 467.782, 1131.888 463.507, 1134.807 459.779 L 1140.114 453 1106.753 453 L 1073.393 453 1068.432 455.472 M 1154.182 455.597 C 1151.316 457.025, 1147.359 460.062, 1145.389 462.347 C 1140.684 467.801, 1119.016 514.188, 1119.007 518.827 C 1119.002 521.176, 1119.859 523.013, 1121.923 525.077 L 1124.846 528 1152.173 527.978 C 1176.911 527.958, 1179.899 527.775, 1183.709 526.045 C 1192.351 522.122, 1195.615 517.410, 1207.640 491.500 C 1213.766 478.300, 1219.085 466.480, 1219.461 465.234 C 1219.837 463.988, 1219.628 461.402, 1218.996 459.487 C 1216.877 453.069, 1216.533 453, 1186.474 453 L 1159.393 453 1154.182 455.597 M 1232.313 455.223 C 1234.738 465.383, 1235.051 464.346, 1219.611 497.284 L 1205.180 528.068 1215.111 527.784 L 1225.043 527.500 1231.608 513.500 C 1235.220 505.800, 1239.542 496.575, 1241.213 493 L 1244.252 486.500 1249.434 507 L 1254.616 527.500 1266.878 527.500 L 1279.140 527.500 1293.144 497.500 C 1300.847 481, 1308.668 464.223, 1310.525 460.217 L 1313.901 452.933 1303.425 453.217 L 1292.950 453.500 1282.269 476.358 L 1271.587 499.216 1266.523 476.358 L 1261.459 453.500 1246.614 453.223 L 1231.769 452.945 1232.313 455.223 M 1319 453.435 C 1319 453.674, 1322.377 463.565, 1326.504 475.414 L 1334.008 496.957 1327.004 512.061 C 1323.152 520.368, 1320 527.368, 1320 527.615 C 1320 527.863, 1325.041 527.938, 1331.203 527.783 L 1342.406 527.500 1349.453 512.446 L 1356.500 497.393 1384.626 475.446 L 1412.752 453.500 1398.868 453.222 L 1384.985 452.945 1369.879 465.097 C 1359.098 473.770, 1354.547 476.885, 1353.985 475.977 C 1353.553 475.276, 1351.719 469.820, 1349.910 463.852 L 1346.622 453 1332.811 453 C 1325.215 453, 1319 453.196, 1319 453.435 M 1419.386 455.750 C 1421.418 465.998, 1422.200 464.261, 1408.918 479 C 1402.227 486.425, 1389.580 500.488, 1380.813 510.250 L 1364.873 528 1375.788 528 L 1386.702 528 1393.601 520.030 L 1400.500 512.060 1416.655 512.030 L 1432.811 512 1432.263 520 L 1431.714 528 1442.272 528 L 1452.829 528 1453.390 520.750 C 1453.699 516.763, 1454.193 504.500, 1454.488 493.500 C 1454.784 482.500, 1455.298 468.887, 1455.632 463.250 L 1456.239 453 1437.540 453 L 1418.841 453 1419.386 455.750 M 1161.250 473.220 C 1160.013 473.817, 1157.805 476.824, 1156.344 479.903 C 1146.566 500.502, 1143.986 506.520, 1144.432 507.683 C 1145.087 509.391, 1173.667 509.564, 1177.359 507.883 C 1180.616 506.398, 1195.426 475.218, 1193.802 473.261 C 1192.465 471.650, 1164.579 471.615, 1161.250 473.220 M 998.779 484.787 L 991.058 493.500 998.651 493.794 C 1002.828 493.956, 1006.433 493.900, 1006.663 493.670 C 1006.893 493.440, 1006.951 489.387, 1006.791 484.663 L 1006.500 476.074 998.779 484.787 M 1425.067 484.986 L 1416.829 494 1424.825 494 L 1432.820 494 1433.532 485.455 C 1433.924 480.756, 1434.033 476.700, 1433.775 476.441 C 1433.517 476.183, 1429.598 480.029, 1425.067 484.986 M 874.423 548.750 C 874.778 550.813, 875.302 553.683, 875.587 555.130 C 876.043 557.440, 872.683 561.568, 847.912 589.130 L 819.718 620.500 830.109 620.808 L 840.500 621.116 848.500 612.535 L 856.500 603.954 871.750 603.977 L 887 604 887 612.500 L 887 621 897.372 621 L 907.743 621 908.356 609.250 C 908.693 602.788, 909.213 588.500, 909.511 577.500 C 909.809 566.500, 910.302 554.688, 910.606 551.250 L 911.159 545 892.468 545 L 873.777 545 874.423 548.750 M 927.494 546.750 C 927.883 547.712, 931.408 557.766, 935.326 569.090 L 942.450 589.680 937.606 600.090 C 934.942 605.816, 931.696 612.862, 930.394 615.750 L 928.025 621 939.336 621 L 950.647 621 957.435 606.250 C 961.169 598.138, 964.830 590.809, 965.572 589.965 C 966.313 589.121, 979.069 578.996, 993.918 567.465 C 1008.767 555.934, 1020.935 546.163, 1020.958 545.750 C 1020.981 545.337, 1014.975 545, 1007.611 545 L 994.222 545 978.638 557.500 C 970.067 564.375, 962.817 570, 962.527 570 C 962.237 570, 962 569.508, 962 568.907 C 962 568.307, 960.383 562.682, 958.407 556.407 L 954.814 545 940.800 545 C 927.850 545, 926.840 545.133, 927.494 546.750 M 1031.443 549.750 C 1031.812 552.362, 1032.322 555.219, 1032.576 556.099 C 1032.879 557.145, 1023.354 568.461, 1005.019 588.836 C 989.609 605.963, 977 620.206, 977 620.488 C 977 620.769, 981.652 621, 987.338 621 L 997.676 621 1005.413 612.500 L 1013.151 604 1028.575 604 L 1044 604 1044 612.500 L 1044 621 1054.355 621 L 1064.710 621 1065.347 606.750 C 1065.697 598.913, 1066.239 582.825, 1066.551 571 C 1066.864 559.175, 1067.326 548.487, 1067.579 547.250 L 1068.038 545 1049.406 545 L 1030.773 545 1031.443 549.750 M 1099 546.337 C 1099 547.102, 1099.451 550.108, 1100.003 553.017 L 1101.007 558.307 1087.891 586.404 C 1080.677 601.857, 1074.145 615.962, 1073.374 617.750 L 1071.973 621 1081.737 620.986 L 1091.500 620.972 1100.920 600.489 C 1106.101 589.224, 1110.572 580.238, 1110.854 580.521 C 1111.137 580.804, 1112.748 589.820, 1114.434 600.558 C 1116.120 611.296, 1117.775 620.176, 1118.111 620.291 C 1118.447 620.406, 1127.907 611.950, 1139.135 601.500 C 1150.362 591.050, 1160.540 581.651, 1161.753 580.614 C 1163.283 579.305, 1161.057 584.913, 1154.479 598.941 C 1149.265 610.057, 1145 619.569, 1145 620.077 C 1145 620.584, 1149.216 621, 1154.369 621 L 1163.739 621 1181.119 583.873 C 1190.679 563.453, 1198.650 546.353, 1198.833 545.873 C 1199.017 545.393, 1194.067 545.019, 1187.833 545.043 L 1176.500 545.087 1156.611 563.071 C 1145.673 572.963, 1136.478 580.812, 1136.180 580.513 C 1135.881 580.215, 1134.229 572.214, 1132.509 562.735 L 1129.382 545.500 1114.191 545.224 C 1101.759 544.998, 1099 545.200, 1099 546.337 M 881.484 575.751 C 877.716 580.013, 873.971 584.288, 873.161 585.250 C 871.780 586.894, 872.179 587, 879.723 587 L 887.755 587 888.230 577.750 C 888.491 572.663, 888.621 568.388, 888.520 568.251 C 888.418 568.114, 885.252 571.489, 881.484 575.751 M 1036.559 577.647 L 1028.619 586.500 1036.432 586.794 C 1040.729 586.956, 1044.433 586.900, 1044.663 586.670 C 1044.893 586.440, 1044.951 582.324, 1044.791 577.523 L 1044.500 568.794 1036.559 577.647" stroke="none" fill="#040404" fill-rule="evenodd"/><path d="M 700.253 434.520 C 636.882 442.518, 597.077 474.873, 584.749 528.407 C 581.650 541.864, 581.680 563.527, 584.814 574.432 C 594.530 608.240, 623.363 631.271, 665 638.480 C 677.946 640.722, 703.745 641.502, 719 640.112 C 741.310 638.080, 762.372 633.784, 765.965 630.531 C 768.076 628.622, 773.524 602.226, 772.484 598.949 C 771.516 595.900, 767.695 595.610, 758.243 597.869 C 709.611 609.493, 674.586 599.903, 660.122 571.004 C 655.193 561.156, 653.513 551.837, 654.354 539 C 656.494 506.303, 674.579 479.720, 701.119 470.260 C 710.801 466.809, 726.885 465.953, 735.419 468.434 C 746.110 471.541, 752.936 480.351, 752.978 491.095 C 753.010 499.235, 754.198 500, 766.806 500 C 776.235 500, 777.056 499.841, 778.398 497.750 C 779.986 495.278, 790 450.752, 790 446.167 C 790 440.996, 786.012 439.250, 765.500 435.446 C 753.012 433.131, 715.483 432.598, 700.253 434.520 M 801.500 435.885 C 796.656 438.116, 794 442.389, 794 447.954 C 794 456.014, 799.659 461.989, 807.300 461.996 C 822.083 462.011, 826.579 441.050, 812.961 435.601 C 807.903 433.577, 806.435 433.614, 801.500 435.885 M 173.729 437.750 C 172.860 438.712, 171.348 443.393, 170.369 448.151 C 168.369 457.875, 168.724 459.022, 174.467 461.422 C 178.589 463.144, 182.763 468.220, 183.563 472.483 C 184.029 474.966, 180.871 491.150, 172.066 531.403 C 165.390 561.926, 159.099 589.306, 158.087 592.248 C 153.616 605.241, 149.409 610.115, 139.823 613.403 L 133.500 615.573 131.848 622.036 C 129.833 629.919, 129.601 635.201, 131.200 636.800 C 132.102 637.702, 144.988 638, 183.045 638 C 230.035 638, 233.799 637.874, 235.205 636.250 C 236.968 634.213, 240.547 617.868, 239.709 615.684 C 239.396 614.868, 236.904 612.984, 234.172 611.497 C 231.246 609.905, 228.491 607.469, 227.470 605.574 C 225.764 602.406, 225.825 601.956, 231.447 576.433 C 234.588 562.175, 237.245 550.421, 237.353 550.313 C 237.461 550.206, 241.536 557.266, 246.408 566.002 C 274.483 616.347, 288.769 631.406, 313.208 636.419 C 319.177 637.643, 327.351 638, 349.435 638 C 377.922 638, 377.956 637.997, 379.378 635.750 C 381.050 633.106, 383 624.352, 383 619.486 C 383 615.436, 381.615 614.514, 374.304 613.691 C 367.569 612.934, 363.739 610.882, 358.374 605.156 C 353.310 599.752, 299.928 527.815, 300.270 526.857 C 300.964 524.916, 371.305 467.517, 375.500 465.469 C 379.736 463.401, 387.466 461.192, 396.640 459.429 C 399.047 458.966, 399.643 457.826, 401.573 450 C 403.368 442.717, 403.331 439.474, 401.429 437.571 C 400.048 436.191, 394.544 436, 356.084 436 C 305.646 436, 310.162 434.995, 307.474 446.813 C 305.639 454.881, 306.046 458.562, 308.870 459.459 C 312.342 460.561, 314.463 463.809, 313.432 466.446 C 312.747 468.201, 262.111 511.376, 243.831 525.793 C 242.344 526.965, 242.276 526.731, 243.096 523.293 C 243.595 521.207, 246.445 508.365, 249.430 494.755 C 253.116 477.949, 255.530 469.065, 256.953 467.066 C 258.105 465.448, 261.521 462.914, 264.543 461.435 C 267.566 459.956, 270.316 458.297, 270.656 457.748 C 270.995 457.199, 272.088 453.094, 273.085 448.625 C 274.695 441.411, 274.733 440.248, 273.426 438.250 L 271.954 436 223.632 436 C 178.880 436, 175.193 436.129, 173.729 437.750 M 417.807 437.750 C 415.968 439.892, 412.673 454.984, 413.547 457.263 C 413.895 458.169, 416.547 460.246, 419.440 461.879 C 424.942 464.984, 428 469.439, 428 474.349 C 428 475.749, 420.350 511.605, 411 554.029 C 401.650 596.453, 394 632.162, 394 633.382 C 394 634.602, 394.540 636.140, 395.200 636.800 C 396.970 638.570, 478.336 638.522, 479.760 636.750 C 481.028 635.174, 484 622.101, 484 618.101 C 484 615.658, 483.145 614.508, 479.424 611.948 C 473.880 608.133, 470.999 603.688, 471.033 599 C 471.047 597.075, 472.766 587.850, 474.853 578.500 L 478.648 561.500 512.310 561.237 C 545.940 560.974, 545.973 560.971, 547.375 558.737 C 548.539 556.883, 555 530.032, 555 527.052 C 555 526.552, 554.293 525.436, 553.429 524.571 C 552.065 523.207, 547.574 523, 519.410 523 L 486.962 523 487.658 520.250 C 488.040 518.737, 490.666 506.925, 493.492 494 L 498.630 470.500 524.111 470.500 C 546.989 470.500, 549.874 470.684, 552.344 472.304 C 556.850 475.259, 558.992 479.771, 558.996 486.316 C 559.002 495.852, 559.208 496, 572.413 496 C 580.798 496, 584.052 495.643, 584.893 494.630 C 586.240 493.006, 597 445.402, 597 441.063 C 597 439.128, 596.317 437.705, 595.066 437.035 C 593.775 436.344, 564.218 436, 506.221 436 C 424.688 436, 419.217 436.108, 417.807 437.750 M 803.500 437.907 C 800.767 439.102, 797.392 443.020, 796.725 445.774 C 795.877 449.276, 797.786 454.687, 800.669 456.955 C 802.295 458.233, 804.755 459, 807.230 459 C 817.753 459, 822.207 446.780, 814.262 439.707 C 811.892 437.597, 806.337 436.668, 803.500 437.907 M 802 448 C 802 454.444, 802.292 456, 803.500 456 C 804.508 456, 805 454.992, 805 452.930 C 805 450.334, 805.341 449.910, 807.209 450.180 C 808.603 450.382, 809.634 451.420, 810.003 452.995 C 810.754 456.200, 814 457.023, 814 454.008 C 814 452.831, 813.549 451.025, 812.997 449.995 C 812.327 448.743, 812.327 447.916, 812.997 447.502 C 814.724 446.434, 814.104 442.126, 812.066 441.035 C 811.002 440.466, 808.302 440, 806.066 440 L 802 440 802 448 M 805 445 C 805 446.467, 805.667 447, 807.500 447 C 809.333 447, 810 446.467, 810 445 C 810 443.533, 809.333 443, 807.500 443 C 805.667 443, 805 443.533, 805 445" stroke="none" fill="#e4042c" fill-rule="evenodd"/></svg>